<?xml version="1.0" encoding="UTF-8" standalone="no"?>
<!DOCTYPE svg PUBLIC "-//W3C//DTD SVG 1.1//EN"
 "http://www.w3.org/Graphics/SVG/1.1/DTD/svg11.dtd">
<!-- Generated by graphviz version 2.43.0 (0)
 -->
<!-- Title: pastafarianism Pages: 1 -->
<svg width="618pt" height="336pt"
 viewBox="0.00 0.00 617.87 335.60" xmlns="http://www.w3.org/2000/svg" xmlns:xlink="http://www.w3.org/1999/xlink">
<g id="graph0" class="graph" transform="scale(1 1) rotate(0) translate(4 331.6)">
<title>pastafarianism</title>
<polygon fill="white" stroke="transparent" points="-4,4 -4,-331.6 613.87,-331.6 613.87,4 -4,4"/>
<!-- OneShot -->
<g id="node1" class="node">
<title>OneShot</title>
<polygon fill="cyan" stroke="black" points="276.99,-302.14 276.99,-317.05 256.49,-327.6 227.51,-327.6 207.01,-317.05 207.01,-302.14 227.51,-291.6 256.49,-291.6 276.99,-302.14"/>
<text text-anchor="middle" x="242" y="-307.4" font-family="Times,serif" font-size="9.00">OneShot</text>
</g>
<!-- Oneshot w/ Guard -->
<g id="node2" class="node">
<title>Oneshot w/ Guard</title>
<polygon fill="orange" stroke="black" points="236.5,-255.6 123.5,-255.6 123.5,-219.6 236.5,-219.6 236.5,-255.6"/>
<text text-anchor="middle" x="180" y="-235.4" font-family="Times,serif" font-size="9.00">Ⓜ Oneshot w/ Guard</text>
</g>
<!-- OneShot&#45;&gt;Oneshot w/ Guard -->
<g id="edge1" class="edge">
<title>OneShot&#45;&gt;Oneshot w/ Guard</title>
<path fill="none" stroke="black" d="M226.99,-291.65C219.49,-283.18 210.26,-272.77 201.98,-263.41"/>
<polygon fill="black" stroke="black" points="204.55,-261.04 195.3,-255.87 199.31,-265.68 204.55,-261.04"/>
</g>
<!-- Oneshot Result -->
<g id="node15" class="node">
<title>Oneshot Result</title>
<ellipse fill="gray" stroke="black" cx="305" cy="-237.6" rx="50.46" ry="18"/>
<text text-anchor="middle" x="305" y="-235.4" font-family="Times,serif" font-size="9.00">Oneshot Result</text>
</g>
<!-- OneShot&#45;&gt;Oneshot Result -->
<g id="edge14" class="edge">
<title>OneShot&#45;&gt;Oneshot Result</title>
<path fill="none" stroke="black" d="M257.25,-291.65C265.1,-282.93 274.81,-272.14 283.42,-262.58"/>
<polygon fill="black" stroke="black" points="286.24,-264.68 290.32,-254.9 281.03,-260 286.24,-264.68"/>
</g>
<!-- Not Completed? -->
<g id="node3" class="node">
<title>Not Completed?</title>
<ellipse fill="ghostwhite" stroke="black" cx="115" cy="-165.6" rx="52.58" ry="18"/>
<text text-anchor="middle" x="115" y="-163.4" font-family="Times,serif" font-size="9.00">Not Completed?</text>
</g>
<!-- Oneshot w/ Guard&#45;&gt;Not Completed? -->
<g id="edge2" class="edge">
<title>Oneshot w/ Guard&#45;&gt;Not Completed?</title>
<path fill="none" stroke="black" d="M163.93,-219.29C155.94,-210.69 146.16,-200.15 137.44,-190.77"/>
<polygon fill="black" stroke="black" points="139.8,-188.17 130.43,-183.22 134.67,-192.93 139.8,-188.17"/>
</g>
<!-- Oneshot Handler -->
<g id="node5" class="node">
<title>Oneshot Handler</title>
<polygon fill="cyan" stroke="black" points="304.23,-158.14 304.23,-173.05 269.54,-183.6 220.46,-183.6 185.77,-173.05 185.77,-158.14 220.46,-147.6 269.54,-147.6 304.23,-158.14"/>
<text text-anchor="middle" x="245" y="-163.4" font-family="Times,serif" font-size="9.00">Oneshot Handler</text>
</g>
<!-- Oneshot w/ Guard&#45;&gt;Oneshot Handler -->
<g id="edge4" class="edge">
<title>Oneshot w/ Guard&#45;&gt;Oneshot Handler</title>
<path fill="none" stroke="black" d="M196.07,-219.29C203.94,-210.82 213.56,-200.46 222.17,-191.18"/>
<polygon fill="black" stroke="black" points="224.88,-193.41 229.12,-183.7 219.75,-188.65 224.88,-193.41"/>
</g>
<!-- Completed? -->
<g id="node4" class="node">
<title>Completed?</title>
<ellipse fill="gray" stroke="black" cx="115" cy="-93.6" rx="40.98" ry="18"/>
<text text-anchor="middle" x="115" y="-91.4" font-family="Times,serif" font-size="9.00">Completed?</text>
</g>
<!-- Not Completed?&#45;&gt;Completed? -->
<g id="edge3" class="edge">
<title>Not Completed?&#45;&gt;Completed?</title>
<path fill="none" stroke="black" d="M115,-147.29C115,-139.58 115,-130.31 115,-121.71"/>
<polygon fill="black" stroke="black" points="118.5,-121.7 115,-111.7 111.5,-121.7 118.5,-121.7"/>
</g>
<!-- Sequence -->
<g id="node6" class="node">
<title>Sequence</title>
<polygon fill="orange" stroke="black" points="265,-111.6 191,-111.6 191,-75.6 265,-75.6 265,-111.6"/>
<text text-anchor="middle" x="228" y="-91.4" font-family="Times,serif" font-size="9.00">Ⓜ Sequence</text>
</g>
<!-- Oneshot Handler&#45;&gt;Sequence -->
<g id="edge5" class="edge">
<title>Oneshot Handler&#45;&gt;Sequence</title>
<path fill="none" stroke="black" d="M240.8,-147.29C238.9,-139.5 236.62,-130.11 234.52,-121.43"/>
<polygon fill="black" stroke="black" points="237.92,-120.59 232.15,-111.7 231.11,-122.25 237.92,-120.59"/>
</g>
<!-- Bookkeeping -->
<g id="node12" class="node">
<title>Bookkeeping</title>
<polygon fill="orange" stroke="black" points="530,-111.6 442,-111.6 442,-75.6 530,-75.6 530,-111.6"/>
<text text-anchor="middle" x="486" y="-91.4" font-family="Times,serif" font-size="9.00">Ⓜ Bookkeeping</text>
</g>
<!-- Oneshot Handler&#45;&gt;Bookkeeping -->
<g id="edge11" class="edge">
<title>Oneshot Handler&#45;&gt;Bookkeeping</title>
<path fill="none" stroke="black" d="M286.16,-152.64C326.4,-140.95 387.9,-123.09 432.05,-110.27"/>
<polygon fill="black" stroke="black" points="433.12,-113.6 441.75,-107.45 431.17,-106.88 433.12,-113.6"/>
</g>
<!-- Guard -->
<g id="node7" class="node">
<title>Guard</title>
<ellipse fill="gray" stroke="black" cx="27" cy="-19.8" rx="27" ry="18"/>
<text text-anchor="middle" x="27" y="-17.6" font-family="Times,serif" font-size="9.00">Guard</text>
</g>
<!-- Sequence&#45;&gt;Guard -->
<g id="edge6" class="edge">
<title>Sequence&#45;&gt;Guard</title>
<path fill="none" stroke="black" d="M190.98,-82.67C157.11,-73.12 105.89,-57.53 63,-39.6 60.89,-38.71 58.73,-37.75 56.57,-36.74"/>
<polygon fill="black" stroke="black" points="57.79,-33.44 47.27,-32.15 54.69,-39.72 57.79,-33.44"/>
</g>
<!-- Action 1 -->
<g id="node8" class="node">
<title>Action 1</title>
<ellipse fill="gray" stroke="black" cx="104" cy="-19.8" rx="32.16" ry="18"/>
<text text-anchor="middle" x="104" y="-17.6" font-family="Times,serif" font-size="9.00">Action 1</text>
</g>
<!-- Sequence&#45;&gt;Action 1 -->
<g id="edge7" class="edge">
<title>Sequence&#45;&gt;Action 1</title>
<path fill="none" stroke="black" d="M198.61,-75.58C179.32,-64.41 154.15,-49.83 134.61,-38.52"/>
<polygon fill="black" stroke="black" points="136.21,-35.41 125.8,-33.42 132.7,-41.46 136.21,-35.41"/>
</g>
<!-- Action 2 -->
<g id="node9" class="node">
<title>Action 2</title>
<ellipse fill="gray" stroke="black" cx="187" cy="-19.8" rx="32.16" ry="18"/>
<text text-anchor="middle" x="187" y="-17.6" font-family="Times,serif" font-size="9.00">Action 2</text>
</g>
<!-- Sequence&#45;&gt;Action 2 -->
<g id="edge8" class="edge">
<title>Sequence&#45;&gt;Action 2</title>
<path fill="none" stroke="black" d="M218.28,-75.58C213.26,-66.78 207.03,-55.87 201.45,-46.1"/>
<polygon fill="black" stroke="black" points="204.36,-44.15 196.36,-37.2 198.28,-47.62 204.36,-44.15"/>
</g>
<!-- Action 3 -->
<g id="node10" class="node">
<title>Action 3</title>
<ellipse fill="gray" stroke="black" cx="270" cy="-19.8" rx="32.16" ry="18"/>
<text text-anchor="middle" x="270" y="-17.6" font-family="Times,serif" font-size="9.00">Action 3</text>
</g>
<!-- Sequence&#45;&gt;Action 3 -->
<g id="edge9" class="edge">
<title>Sequence&#45;&gt;Action 3</title>
<path fill="none" stroke="black" d="M237.95,-75.58C243.1,-66.78 249.49,-55.87 255.2,-46.1"/>
<polygon fill="black" stroke="black" points="258.38,-47.6 260.41,-37.2 252.34,-44.06 258.38,-47.6"/>
</g>
<!-- Mark Done\n[SUCCESS] -->
<g id="node11" class="node">
<title>Mark Done\n[SUCCESS]</title>
<ellipse fill="gray" stroke="black" cx="370" cy="-19.8" rx="49.49" ry="19.6"/>
<text text-anchor="middle" x="370" y="-22.6" font-family="Times,serif" font-size="9.00">Mark Done</text>
<text text-anchor="middle" x="370" y="-12.6" font-family="Times,serif" font-size="9.00">[SUCCESS]</text>
</g>
<!-- Sequence&#45;&gt;Mark Done\n[SUCCESS] -->
<g id="edge10" class="edge">
<title>Sequence&#45;&gt;Mark Done\n[SUCCESS]</title>
<path fill="none" stroke="black" d="M261.65,-75.58C282.61,-64.99 309.63,-51.32 331.44,-40.29"/>
<polygon fill="black" stroke="black" points="333.1,-43.38 340.44,-35.74 329.94,-37.13 333.1,-43.38"/>
</g>
<!-- Mark Done\n[FAILURE] -->
<g id="node13" class="node">
<title>Mark Done\n[FAILURE]</title>
<ellipse fill="gray" stroke="black" cx="486" cy="-19.8" rx="48.17" ry="19.6"/>
<text text-anchor="middle" x="486" y="-22.6" font-family="Times,serif" font-size="9.00">Mark Done</text>
<text text-anchor="middle" x="486" y="-12.6" font-family="Times,serif" font-size="9.00">[FAILURE]</text>
</g>
<!-- Bookkeeping&#45;&gt;Mark Done\n[FAILURE] -->
<g id="edge12" class="edge">
<title>Bookkeeping&#45;&gt;Mark Done\n[FAILURE]</title>
<path fill="none" stroke="black" d="M486,-75.58C486,-67.92 486,-58.65 486,-49.93"/>
<polygon fill="black" stroke="black" points="489.5,-49.71 486,-39.71 482.5,-49.71 489.5,-49.71"/>
</g>
<!-- Failure -->
<g id="node14" class="node">
<title>Failure</title>
<ellipse fill="gray" stroke="black" cx="581" cy="-19.8" rx="28.74" ry="18"/>
<text text-anchor="middle" x="581" y="-17.6" font-family="Times,serif" font-size="9.00">Failure</text>
</g>
<!-- Bookkeeping&#45;&gt;Failure -->
<g id="edge13" class="edge">
<title>Bookkeeping&#45;&gt;Failure</title>
<path fill="none" stroke="black" d="M508.51,-75.58C522.55,-64.98 540.65,-51.29 555.26,-40.26"/>
<polygon fill="black" stroke="black" points="557.53,-42.93 563.39,-34.11 553.31,-37.34 557.53,-42.93"/>
</g>
</g>
</svg>
